<svg width="150" height="150" viewBox="0 0 150 150" fill="none" xmlns="http://www.w3.org/2000/svg">
<path d="M20.4001 56.5439C20.4441 56.4453 20.5152 56.3612 20.6051 56.3014C20.6949 56.2415 20.7999 56.2083 20.9078 56.2057L70.0501 50.2004L85.0216 27.7852C85.1183 27.6594 85.2574 27.573 85.4129 27.542C85.5685 27.511 85.73 27.5374 85.8676 27.6164C85.9516 27.6164 85.9516 27.7004 86.0363 27.7852L86.7113 26.7704C83.4757 26.6341 80.2477 27.1818 77.2381 28.3777L29.9581 48.0007C25.1363 50.0302 21.6683 53.1599 20.2306 56.5432L20.4001 56.5439Z" fill="#F1C34E"/>
<path d="M80.0326 73.9681C77.1563 66.9825 75.3868 59.5913 74.7878 52.0606C74.662 50.8806 74.6339 49.6924 74.7038 48.5078L71.2358 52.9066L19.5541 58.6583C19.2896 60.0763 19.3665 61.5369 19.7783 62.9193C20.1902 64.3017 20.9252 65.5662 21.9226 66.6083L39.7726 86.7398C50.5988 98.8351 60.2476 95.6243 70.3921 89.6153C73.3418 87.8693 72.5911 88.3733 72.5911 88.0928C71.3228 86.5703 70.6801 84.2288 71.9993 82.5106C73.2151 80.9273 75.6361 80.7376 77.4976 80.9033C79.4598 80.9765 81.3994 81.3475 83.2501 82.0036L84.0113 81.4958C82.3889 79.1547 81.0531 76.6274 80.0326 73.9681ZM52.3733 94.0996C52.2983 94.7746 51.2738 94.7746 51.2738 94.0996C51.7268 86.3911 54.0001 63.0526 55.5001 55.2751C55.5818 54.8513 56.3453 54.9361 56.2613 55.3591C56.0071 58.2353 55.6208 61.0201 55.2458 63.8176C53.7001 75.3863 52.8428 89.9206 52.3733 94.0996Z" fill="#F1C34E"/>
<path d="M119.025 60.9426C126.046 56.7981 125.538 49.2696 118.518 44.1103L100.333 30.9148C97.6583 29.0963 94.633 27.8573 91.4513 27.2773L77.7488 44.6173C77.9553 44.6341 78.1565 44.6917 78.3405 44.7868C79.5848 45.2533 80.19 46.4631 82.5698 49.9461C84.5873 52.8996 88.9605 58.6686 90.267 60.2661H92.0438C92.0438 60.0966 92.2125 59.9278 92.466 59.8431C96.576 59.6638 100.116 60.0268 103.801 61.9573C104.224 61.8726 104.816 61.7038 105.493 61.6191C105.484 61.4739 105.531 61.3308 105.626 61.2203C105.721 61.1097 105.855 61.0405 106 61.0273H107.438C110.093 61.1763 112.675 61.9594 114.966 63.3111L119.025 60.9426ZM80.7938 42.9261C80.2013 42.7566 80.4555 41.9106 81.0473 41.9953C93.411 44.4703 117.508 50.7088 121.31 51.9763C121.46 52.027 121.584 52.1336 121.658 52.2739C121.732 52.4142 121.749 52.5774 121.705 52.7297C121.662 52.8821 121.561 53.0118 121.424 53.0921C121.288 53.1723 121.126 53.1968 120.971 53.1606C118.425 52.5951 100.942 47.4756 80.7938 42.9261Z" fill="#F1C34E"/>
<path d="M56.2641 55.4434C56.2598 55.3508 56.2226 55.2628 56.1592 55.1952C56.0958 55.1276 56.0103 55.0849 55.9182 55.0746C55.8261 55.0644 55.7333 55.0874 55.6566 55.1395C55.58 55.1916 55.5244 55.2693 55.4999 55.3587C54.0194 63.0192 51.7049 86.8009 51.2706 94.1832C51.2706 94.8582 52.2936 94.8582 52.3701 94.1832C52.6551 91.6489 52.7511 89.1049 52.9619 86.5707C54.1056 72.8832 55.6964 61.6864 56.2641 55.4434Z" fill="#191919"/>
<path d="M96.5249 46.7312C117.742 52.0352 117.124 52.2857 121.054 53.1595C121.209 53.1957 121.371 53.1712 121.508 53.091C121.644 53.0107 121.745 52.881 121.788 52.7286C121.832 52.5763 121.815 52.413 121.741 52.2728C121.668 52.1325 121.543 52.0259 121.393 51.9752C119.131 51.2252 115.873 50.53 113.611 49.7762C105.997 47.8112 102.07 46.66 90.0967 43.9397C87.1349 43.2647 84.1897 42.5102 81.1304 41.9942C80.5409 41.8952 80.2844 42.7555 80.8769 42.925C86.0377 44.1092 91.2749 45.4172 96.5249 46.7312Z" fill="#191919"/>
<path d="M85.7842 27.6161C85.6466 27.5373 85.4851 27.511 85.3296 27.542C85.174 27.573 85.035 27.6593 84.9382 27.7849L69.9667 50.2001L20.8229 56.2054C20.715 56.208 20.61 56.2412 20.5201 56.3011C20.4303 56.361 20.3592 56.4451 20.3152 56.5436C20.2479 56.6429 20.2179 56.7627 20.2304 56.8819C20.2405 57.0357 20.3061 57.1807 20.4151 57.2897C20.5242 57.3987 20.6691 57.4643 20.8229 57.4744C21.1567 57.4744 69.9794 51.4684 70.5584 51.4684L85.7834 28.5461C85.8655 28.4362 85.9099 28.3027 85.9099 28.1655C85.9099 28.0283 85.8655 27.8948 85.7834 27.7849C85.9499 27.7001 85.8689 27.7001 85.7842 27.6161Z" fill="#191919"/>
<path d="M82.5699 49.945C80.3431 46.909 79.7896 45.3287 78.3406 44.7857C78.1719 44.701 77.9176 44.701 77.7489 44.6162C75.4786 44.6162 74.6191 46.3795 74.6191 48.6767C74.6191 60.8132 79.4941 77.4115 87.2191 86.5705C87.5461 87.0001 87.9144 87.3968 88.3186 87.7547C88.7416 88.1777 89.3341 87.5852 88.9936 87.0797C82.1769 78.6587 77.5546 64.9802 76.3059 54.1757C76.0726 52.1507 75.1869 46.996 77.0671 46.0555C77.4901 45.802 77.9131 45.9715 78.3361 46.3097C79.0374 47.011 80.5861 49.8062 86.0334 57.052C90.6511 63.1907 97.1656 70.7215 99.1441 72.7C99.2683 72.8191 99.4342 72.8848 99.6063 72.8831C99.7784 72.8813 99.9429 72.8121 100.065 72.6904C100.186 72.5688 100.255 72.4042 100.257 72.2321C100.259 72.0601 100.193 71.8941 100.074 71.77C95.4279 66.3482 97.0044 68.5337 90.1779 60.2665C87.3834 56.875 87.0166 56.0087 82.5699 49.945Z" fill="#191919"/>
<path d="M92.5502 59.8426C92.4938 59.8395 92.4375 59.8484 92.3848 59.8686C92.3321 59.8888 92.2842 59.9198 92.2443 59.9597C92.2044 59.9996 92.1734 60.0475 92.1532 60.1002C92.133 60.1529 92.1241 60.2092 92.1272 60.2656C92.1048 60.3329 92.0987 60.4045 92.1093 60.4746C92.1199 60.5447 92.1469 60.6113 92.1882 60.669C92.2294 60.7267 92.2837 60.7738 92.3466 60.8065C92.4095 60.8393 92.4793 60.8567 92.5502 60.8573C98.4879 60.8573 102.861 62.0326 107.1 66.2708C107.608 66.7786 108.2 67.2856 108.707 67.8781C109.286 68.5125 109.907 69.1059 110.568 69.6541C111.076 69.9923 111.668 69.3158 111.414 68.8081C109.705 66.6611 107.713 64.7548 105.494 63.1411C104.986 62.8028 104.393 62.4661 103.886 62.1263C102.139 61.2055 100.253 60.577 98.3034 60.2656C96.4156 59.8513 94.4783 59.7089 92.5502 59.8426Z" fill="#191919"/>
<path d="M136.958 92.4924C134.258 89.2502 128.838 81.9834 127.4 79.4664C129.684 78.0279 130.7 76.7597 130.7 75.2372C130.7 73.2069 128.586 71.3462 125.456 69.3159C125.54 68.5547 125.696 67.8759 125.795 67.1169C126.237 63.7239 126.894 60.2657 127.486 56.8817C127.748 56.0897 127.89 55.2631 127.909 54.4292C127.994 50.5352 125.795 46.5624 121.565 43.4327L101.69 28.9689C95.0087 24.0632 83.5899 22.7942 75.8079 25.9239L24.4599 46.9854C18.2852 49.5227 14.0559 53.6679 12.9564 58.4042C12.4404 61.5017 9.57541 77.6792 9.23491 79.6352C3.18241 82.3689 2.39716 86.0357 5.68216 90.8852L29.1122 117.53C32.7497 121.759 38.2479 124.296 44.3372 125.227C45.5439 125.227 54.0122 127.252 62.6919 122.266C64.3824 121.421 61.3029 123.411 90.3512 103.826C97.9967 112.291 100.747 115.597 113.274 113.807C113.913 113.807 113.869 112.611 113.189 112.623C110.819 112.666 108.452 113.053 106.084 112.877C94.8047 112.04 94.9442 102.329 75.2109 89.0274C73.6937 88.0044 72.0384 86.6604 72.0812 84.6287C72.0771 84.2363 72.1767 83.8499 72.3697 83.5083C72.5627 83.1667 72.8425 82.8821 73.1807 82.6832C74.9004 81.6692 76.9097 82.0142 78.7629 82.1762C81.6587 82.4282 81.7329 82.5737 82.8234 82.9374C83.2464 83.1062 83.5847 82.3449 83.1617 82.0914C83.0769 82.0067 82.9922 82.0067 82.8234 81.9219C80.9729 81.2661 79.0335 80.8954 77.0717 80.8224C75.2102 80.6567 72.8267 80.8974 71.5734 82.4297C70.2032 84.1074 70.8984 86.4894 72.1652 88.0119C72.1652 88.0967 72.2499 88.0967 72.2499 88.1814C72.6663 88.6709 73.1508 89.0983 73.6884 89.4504C66.8192 93.4389 59.8884 98.0754 52.4574 98.0754C47.2127 98.0754 41.7152 95.7917 35.8787 89.2787L16.3404 67.2857C15.2595 66.1406 14.4779 64.7466 14.0647 63.2272C13.6516 61.7078 13.6197 60.1099 13.9719 58.5752C14.9469 54.2522 19.0472 50.3702 24.7142 48.0002L76.0569 26.9379C83.9057 23.7497 94.4529 25.3247 100.671 29.7294L120.546 44.1932C127.651 49.2932 128.721 57.0414 121.307 61.4492L116.486 64.3247L114.71 63.0557C112.418 61.7046 109.837 60.9216 107.181 60.7719H105.75C105.676 60.7707 105.602 60.786 105.534 60.8166C105.466 60.8472 105.406 60.8924 105.357 60.9489C105.309 61.0055 105.274 61.0721 105.254 61.1439C105.234 61.2157 105.23 61.291 105.243 61.3644C105.24 61.4321 105.251 61.4997 105.275 61.5629C105.299 61.6262 105.336 61.6837 105.384 61.7318C105.432 61.7798 105.489 61.8174 105.552 61.8421C105.615 61.8668 105.682 61.8781 105.75 61.8752C117.643 61.8752 120.284 71.0687 126.558 80.6537C131.14 87.6515 136.349 94.219 142.118 100.275C142.784 100.962 143.387 101.625 144.064 102.221C144.479 102.594 144.875 102.989 145.248 103.404C145.755 103.912 146.598 103.151 146.093 102.559C143.048 99.5132 139.919 96.0452 136.958 92.4924ZM117.758 65.5097C121.007 63.6092 123.69 62.2989 125.708 60.0962C125.578 60.8004 123.678 72.6152 123.678 73.3764C123.425 72.8687 123.093 72.3572 122.832 71.9379C121.44 69.5749 119.733 67.4123 117.758 65.5097H117.758ZM75.1277 90.4622C80.1217 93.8246 84.7435 97.7093 88.9149 102.05C89.1684 102.389 89.5067 102.642 89.7609 102.981C77.9184 111.017 66.3692 118.944 63.7082 120.575C52.9464 127.169 37.4807 125.232 30.2124 116.852C12.2372 96.1299 9.40216 93.1637 8.55916 91.0524C9.15916 87.1524 11.6417 76.1979 13.2954 65.1692C13.2954 64.9157 13.3802 64.7462 13.3802 64.4942C13.9089 65.9335 14.714 67.2555 15.7502 68.3859L35.2869 90.3752C40.8699 96.6347 46.6217 99.6797 52.7117 99.6797C60.6752 99.6819 67.9794 94.7289 75.1269 90.4622H75.1277Z" fill="#191919"/>
<path d="M115.812 114.062C115.384 113.643 114.712 114.315 115.137 114.737C117.016 116.616 118.794 118.368 120.462 120.235C121.3 121.172 122.216 122.035 123.087 122.942C123.964 123.897 124.896 124.801 125.878 125.649C125.982 125.734 126.114 125.778 126.248 125.772C126.383 125.765 126.51 125.709 126.605 125.614C126.7 125.519 126.756 125.392 126.763 125.257C126.769 125.123 126.725 124.991 126.64 124.887C125.925 123.984 115.888 114.135 115.812 114.062Z" fill="#191919"/>
</svg>
